<svg id="SVGRoot" version="1.1" viewBox="0 0 1920 1080" xmlns="http://www.w3.org/2000/svg">
 <defs>
  <clipPath id="clipPath1995">
   <text transform="scale(.984 1.0163)" x="107.90028" y="608.09119" fill="#000000" font-family="'Clicker Script'" font-size="494.19px" letter-spacing="0px" stroke-width="1.0016" word-spacing="0px" style="line-height:1.25" xml:space="preserve"><tspan x="107.90028" y="608.09119" stroke-width="1.0016">Anyaww</tspan></text>
  </clipPath>
 </defs>
 <g fill="none" stroke="#e156ba">
  <path transform="translate(37.003 48.487)" d="m71.071 671.07s35.882-17.902 41.62-24.289c6.0664-6.7528 19.255-21.538 24.387-28.885 6.0703-8.6905 34.351-51.111 37.922-59.325 3.5714-8.2143 67.143-145.36 70.357-152.5 3.2143-7.1429 56.786-116.79 60.714-119.29s10.714-1.0714 11.071 3.5714c0.35714 4.6429-5 80.357-5.7143 86.071-0.71428 5.7143-4.7255 129.05-6.0714 136.43-1.8835 10.325 5.852 82.391 9.2065 90.931 3.5714 11.446 16.661 38.953 20.27 42.753 4.7469 4.9964 14.265 12.991 21.952 17.031 5.6551 2.9726 25.357 10.357 31.429 10.357 6.0714 0 25.714 1.4286 31.786-0.35714 6.0714-1.7857 29.286-7.8571 29.286-7.8571l-149.78 146.09-257.08-144.45 81.681-145.92 247.12-0.548 37.881-18.183s16.289-38.26 19.319-40.911 15.91-10.985 20.077-7.4499c4.1669 3.5355 10.001 15.586 10.985 20.708 1.0815 5.6272 0.12288 46.969-0.50508 48.992-0.74937 2.4149-13.763 78.287-15.91 81.57-2.1466 3.283 25.128-70.837 27.4-75.635 2.2728-4.7982 11.617-25.001 13.89-28.032 2.2728-3.0305 17.425-22.223 21.213-24.496 3.7881-2.2728 10.607-6.3135 15.405-6.0609 4.7982 0.25254 13.132 1.5152 14.9 4.5457 1.7678 3.0304 5.3033 26.264 4.0406 31.82s-8.5863 40.154-8.5863 46.467 3.7881 22.223 6.8185 25.506c3.0305 3.283 12.879 8.8388 18.94 8.0812 6.0609-0.75761 17.173-4.7982 19.193-7.0711 2.0203-2.2728 21.213-31.82 24.244-38.133 3.0305-6.3135 13.89-36.113 16.415-41.921 2.5254-5.8084 20.456-53.286 20.456-53.286s-25.493 82.474-24.749 94.702c0.67826 11.138-1.6216 22.336 10.311 39.623 5.3212 6.6452 9.8923 11.642 18.226 12.147 8.3338 0.50507 17.425-1.5152 23.234-5.3033 5.8084-3.7881 19.445-16.92 21.466-20.961 2.0203-4.0406 16.162-25.001 16.162-25.001s30.81-90.409 30.81-98.237-23.8 111.03-24.052 117.09c-0.35091 3.7257-0.87802 15.72-1.4508 29.967-1.0342 25.727-2.2174 58.8-2.7811 63.808-0.96712 8.5912-10.102 53.033-11.364 54.548-1.2627 1.5152-11.967 23.614-14.824 26.471s-18.036 17.321-25.357 17.143c-7.3214-0.17857-23.571-1.7857-27.5-9.4643-3.9286-7.6786-12.5-28.75-6.9643-41.071s26.964-38.393 32.679-43.393c5.7143-5 42.679-29.464 46.25-32.679 3.5714-3.2143 25.179-15.714 27.5-18.214s23.929-23.214 26.429-27.857c2.5-4.6428 24.286-38.036 26.25-42.857 1.9643-4.8214 18.571-33.75 21.607-41.964 3.0357-8.2143 22.321-41.429 27.5-44.464 5.1786-3.0357 25.357-13.393 33.214-12.143s24.464 6.0714 26.25 11.071c1.7857 5 4.4643 13.393 3.9286 17.857-0.53571 4.4643-2.5 19.286-5.7143 23.393-3.2143 4.1071-14.107 16.429-23.929 18.75l-9.8214 2.3214 69.282-34.729-55.558-83.085-63.135 45.204s-12.525 95.964-10.755 112.97c1 9.6053 5.2492 18.965 7.9766 24.41 0.97298 1.9424 10.607 13.89 15.91 16.162s16.668 5.3033 19.951 4.7982c3.283-0.50507 14.395-1.5152 18.435-5.3033s11.364-10.354 13.637-14.647c2.2728-4.2932 13.385-22.223 14.142-25.506 0.75762-3.283 14.9-56.569 14.9-56.569s-12.627 53.538-10.859 61.872c1.7678 8.3338 5.8084 24.244 8.5863 26.264 2.7779 2.0203 9.849 7.5761 14.9 6.0609s14.395-3.1567 17.804-7.3236c3.4093-4.1669 17.046-27.022 23.612-42.679 6.566-15.657 33.84-77.024 37.376-78.539 3.5355-1.5152-27.797 60.057-25.34 82.659 2.5254 23.234 7.1577 33.256 9.6831 38.054 2.5254 4.7982 8.5863 13.637 12.122 15.405 3.5355 1.7678 14.142 4.2931 18.183 3.0304 4.0407-1.2627 13.89-5.5558 16.162-8.3338 2.2728-2.7779 12.627-18.94 13.637-23.234 1.0102-4.2932 0.7577-19.445 0-25.001-0.7576-5.5558 10.354-71.721 10.354-71.721s-6.7827 74.831-2.742 88.973c2.0203 15.657 10.066 29.215 12.844 31.741 2.778 2.5254 12.122 8.3338 16.415 9.0914 4.2932 0.75762 14.9 2.5254 18.183 0.50508 3.283-2.0203 14.9-5.8084 17.678-12.122 2.778-6.3135 12.88-24.496 14.142-30.81 1.2627-6.3134 5.8083-27.779 5.8083-35.103 0-7.3236-0.505-37.628-2.7779-41.921-2.2728-4.2932-6.8185-22.223-11.617-17.93-4.7983 4.2931-14.395 18.94-13.89 30.052 0.5051 11.112 2.2728 35.103 4.2931 41.669 2.0203 6.566 10.354 23.739 11.617 25.759 1.2627 2.0203 4.2931 6.3134 6.8185 8.3338 2.5254 2.0203 11.364 6.566 14.142 6.3135 2.778-0.25254 7.8287 1.0102 12.374-0.75762 4.5457-1.7678 14.395-5.8084 16.415-8.8388s17.93-27.274 19.445-31.315c1.5153-4.0406 27.779-68.185 33.082-68.943 5.3033-0.75762-24.365 58.028-24.121 77.991 0.211 17.234 3.844 31.463 6.4434 36.156 2.7779 5.0508 12.248 15.5 16.289 17.551 3.848 1.9532 12.574 3.0521 15.278 2.6516 2.3832-0.75762 10.532-3.4093 15.026-7.5762 2.5254-4.1669 16.289-18.056 16.541-23.991 0.2525-5.9346 1.2627-20.708 0.2525-31.82-1.0101-11.112 6.3135-60.104 6.3135-60.104s-2.3416 56.433 0.5051 77.782c2.4895 21.884 5.4945 25.651 7.2623 28.05s10.036 11.851 13.825 14.25 19.95 7.0711 22.223 6.0609c2.2729-1.0102 15.279-4.9245 18.056-9.5964 2.7779-4.672 13.384-16.794 13.258-20.329-0.1263-3.5355 9.9752-29.294 9.9752-38.765s1.1365-51.139-1.2627-55.18c-2.3991-4.0406-7.7024-15.657-11.617-13.763-3.9144 1.894-15.657 12.248-14.9 20.582 0.7577 8.3338 2.6517 41.669 3.4093 45.078 0.7576 3.4093 9.0914 27.527 11.869 31.062s6.566 7.7024 8.5863 8.9651 8.3337 4.0406 11.996 4.7982c3.6618 0.75761 12.374 1.1364 15.026 0.12627 2.6516-1.0102 8.8388-4.4194 10.733-6.566 1.8941-2.1466 8.5863-10.607 10.102-13.258 1.5152-2.6516 11.238-17.299 11.869-18.94 0.6313-1.6415 17.678-45.836 17.678-45.836l4.1531-28.516" clip-path="url(#clipPath1995)" stroke-width="20"/>
  <path d="m1497.4 542.18c148.42-40.724 292.1-166.14 301.13-248.18-3.6726-94.146-182.17-75.583-177.1 55.395 13.744-3.3432-109.64-197.9-132.97-17.116-2.3449 96.401 80.915 161.69 147.37 185.65" stroke-width="15"/>
 </g>
</svg>
