<svg id="SVGRoot" version="1.1" viewBox="0 0 1920 1080" xmlns="http://www.w3.org/2000/svg">
 <defs>
  <clipPath id="clipPath4586">
   <text transform="scale(.85391 1.1711)" x="130.89401" y="574.49023" fill="#000000" font-family="'Clicker Script'" font-size="383.16px" letter-spacing="0px" opacity=".324" stroke-width="18" word-spacing="0px" style="line-height:1.25" xml:space="preserve"><tspan x="130.89401" y="574.49023" stroke-width="18">Happy Birthday </tspan></text>
  </clipPath>
 </defs>
 <g fill="none">
  <path d="m75.25 735.5s8.75 13.75 11 16.25 11 11 16.25 14c5.25 3 18.5 7.75 23.25 8.5s21.5-0.25 25.75-2 10-3 12.75-5 10.75-7.5 11.75-9.75 8.25-12 10-17.5 8-16.75 8.75-19.75 6.5-43.25 6.5-43.25 1.8787-67.306 0.37868-81.806-3.4645-61.237-3.2145-71.987-2.6642-62.957-1.4142-71.457 7.25-57.5 9.25-63.25 10.25-35.25 19.75-45.25 16-15.75 21.25-15 7.5 3 8.75 6.75 1.5 10 0.25 12.75-6.5 12.25-10.5 15.75-12.75 10-18.25 12.75-21.75 8.5-26.5 9.5-24.75 4.75-30.25 6.25-23 6.75-29.25 10.25-14.75 10-17.75 12.75-10 11.25-11.75 14-5 9.25-5 9.25l-25-98.25 154-88 106 112 0.75 12s-7.5 27-9 34-7.25 35-9 44-6.5 50.207-7 56.207-1.75 44.043-1.5 49.293 1.25 30.25 1.75 35.5 3.5 27.5 4 31.75 6.5 33 7.25 36.25 7.75 24.5 7.75 24.5l-76 151.5-229-78 124.5-188.5s24.875-14.875 33.125-16.375 13.375-3 18-3.75 18.375-2.75 24.25-3.375 15.875-0.25 21.375 0 15.25 1.75 20.5 1.75 10.25 0 14-0.25c3.75-0.25 16.75-0.5 20-1s15.25-2 17.75-2.5 12.25-1.75 16.5-3.5 10.25-4.5 10.25-4.5 40.194-7.7149 47.265-12.665 14.849-10.96 20.506-12.021c5.6568-1.0607 10.96-2.1213 14.142 0.35355s7.7782 5.3033 8.4853 10.607 1.4142 10.96 1.4142 15.203c0 4.2426-1.7678 14.142-3.182 17.324s-5.6568 9.1924-7.071 10.607-8.1318 7.7782-9.546 7.7782 45.962-45.608 45.962-45.608l-38.891-43.841-47.73 19.799 18.031 19.445s-4.5962 4.2426-6.7175 8.4853c-2.1213 4.2426-8.1317 14.849-10.253 20.506-2.1213 5.6568-4.9497 15.556-5.6568 21.567s-1.4142 22.981-1.4142 26.87 1.7677 22.627 2.8284 26.516c1.0607 3.8891 6.7175 12.374 8.8388 15.91 2.1214 3.5355 8.8389 8.8388 13.082 9.1924 4.2427 0.3536 13.789-0.3536 16.264-3.8891 2.4748-3.5355 7.4246-7.0711 10.607-15.203s8.4853-18.385 9.8995-23.688 6.3639-30.406 6.7175-36.062c0.3535-5.6569 1.4142-14.849 1.4142-14.849s-3.8891 29.698-4.2426 33.941c-0.3536 4.2426-1.0607 20.86-0.7072 27.224 0.3536 6.364 1.4143 16.263 3.8891 19.799 2.4749 3.5355 6.0104 7.7782 9.1924 7.4246s10.253-2.1213 12.374-5.6569c2.1213-3.5355 6.7175-12.728 8.1317-16.617 1.4142-3.889 9.8995-27.224 11.314-32.88 1.4142-5.6569 6.7175-16.971 6.7175-19.799 0-2.8285 0.7071-14.142 0.7071-20.506v-36.416l0.7072-10.96s7.071 13.789 7.071 21.567c0 7.7781-3.182 27.224-4.5962 33.941s-3.5355 13.435-3.5355 13.435l2.4749 39.952s0.7071 18.738 1.0606 25.456c0.3536 6.7175 2.4749 27.577 2.4749 30.406s1.4142 42.073 1.7678 47.376c0.3535 5.3033 0.7071 39.244 0 44.548s-6.0104 24.395-8.1318 27.577c-2.1213 3.1819-7.4246 7.7781-10.253 6.3639s-8.8388-5.6568-9.5459-7.7782c-0.7072-2.1213-4.5962-13.081-4.9498-17.678s1.0607-27.931 1.7678-31.466c0.7071-3.5355 10.607-48.79 10.607-48.79l17.678-61.872s19.799-51.265 22.274-58.336c2.4749-7.0711 17.678-30.759 23.334-32.527 5.6569-1.7678 8.8389-2.8285 12.728-2.1214 3.889 0.7072 8.1317 3.5356 10.253 7.0711 2.1213 3.5356 5.6569 11.314 5.6569 15.91s0.7071 17.678 0 23.688c-0.7072 6.0104-3.5356 26.163-5.6569 32.173s-7.0711 18.738-10.96 24.395c-3.889 5.6568-14.142 14.849-17.678 15.556-3.5356 0.7071-13.082 1.4142-15.556-1.4142-2.4748-2.8284-4.2426-5.3033-4.2426-8.4853s1.0606-8.8388 3.8891-11.314c2.8284-2.4749 5.3033-4.2426 10.253-3.5355 4.9498 0.7071 10.96 4.2426 18.031 8.4853 7.0711 4.2426 6.364 5.3033 10.96 6.7175s10.96 2.8284 13.789 1.7677c2.8284-1.0606 8.1317-4.5962 10.253-7.4246s10.955-15.033 12.455-19.533 9.25-23.75 11.25-29 5.5-13.75 6-17.5 1-66.25 1-66.25l5.5 19-7 52.5s4.5 44.25 4.5 51.5 2.25 36 2.25 36l1.75 35 1 36.5s-0.75 25-1.5 29.75-4 18.25-5.75 21.25-7.5 7-10.25 7-11.25-4.25-12-7-3.25-8-4-12.5-0.5-14-0.25-17.5 2.25-19 2.5-22 3.75-22.5 5-27.5 22.75-80.75 22.75-80.75 20-59 24-66.25 14.25-19 17.5-21.25 9.75-5.75 13.75-5.5 10 4 12.25 6.25 6 8.75 6.75 12 2.25 18.25 2 21.5-0.75 12-1.25 14.75-3 15-4 18.5c-1 3.4999-6.25 17.25-7.75 19.75s-6.5 13.25-9 16.25-13.5 9.25-15.75 10-11.25 0.75-14-1.75-5-6.5-3.75-12.25 6.75-9.75 9.5-10 9.25 1 11 1.75 20.5 12.25 20.5 12.25 1.5 1.25 5.5 1.5 10.5 0.75 12.5-0.75 8.25-3.75 11.25-10 16.25-29 17.25-32.5 7.25-13.75 9.5-23.25 14.25-55.5 14.25-55.5-15 53-15.5 63.75 1 29 1.75 33.75 4 14.75 5.5 18 3.75 7 6.25 8.75 7.5 3.5 9.75 3.25 8.25-1.75 11.5-4.5 9-9.75 11.25-13.75 12.25-25 13.75-28.75 8.25-18.5 8.75-22.5 13-63.5 13-63.5-11.75 55.75-14 70.75-4 78-4 78l-0.25 13.25s-1 23-1.75 29-3.5 31.5-4.75 35.5-3.75 13.25-5.25 17-7 14.25-8.25 16-8.75 9.75-12 11.5-6.25 2.25-9.5 1.75-6-2-8.25-5.25-7.5-7.75-8.5-15.25-0.5-22.75 1.75-28.75 9.5-20.25 10.75-22.25 14.25-17 16.5-19.25 20.75-19 23-20.5 10.75-8.75 14.25-12.25 10-11.25 12-14 14.5-20.75 15-22.5 8-18.25 9.5-23.75c1.5-5.5 17-50.5 17-50.5l57.653-91.769 98.288-67.882s-7.4247 16.794-9.0156 23.511c-1.591 6.7175-7.7782 36.946-8.8389 41.719-1.0606 4.773-4.773 28.815-5.1265 33.234-0.3536 4.4194-2.8285 34.118-3.3588 41.543-0.5303 7.4246 0.1768 41.366 0.5303 46.669 0.3536 5.3033 2.8285 24.042 3.3588 28.638s7.0711 44.724 7.4246 47.376c0.3536 2.6517 2.1214 11.844 2.1214 11.844l-39.536-50.883-47.5-207 0.5923-4.0998s14.319-20.86 19.622-25.633 11.844-9.7227 16.087-12.551c4.2427-2.8284 22.451-12.374 26.163-13.258 3.7123-0.88388 10.253-3.8891 19.622-4.4194 9.3692-0.53033 22.981 0.17678 27.931 1.2374 4.9498 1.0607 28.483 7.9738 33.608 12.099s16.125 14.375 18.875 19.5 12.25 24.5 12.875 28.375 2.75 13 2.875 16.125-1 16.375-1.75 20.25-6.25 16.875-7.25 18.875-12.125 18.625-13.875 20.375-18.25 17.375-18.25 17.375-13.875 10.375-17.625 12.5-17.75 7.375-20.375 7.875-16 1-20.5 1.125c-4.5 0.125-21.875-1.5-24.625-3.625s-10.25-7.875-6.75-11.625 11.875-9.125 21.125-9.75 11.625-1.125 21.125-0.5c9.5 0.625 36 5 41.75 6.75s38.694 20.876 43.998 34.134c5.3033 13.258 10.96 50.381 8.3085 63.64-2.6516 13.258-9.0156 40.835-18.208 51.088-9.1923 10.253-25.102 25.986-34.648 30.759-9.5459 4.7729-34.295 13.258-41.189 13.789-6.8942 0.5303-21.567 2.8284-30.052 1.0606-8.4853-1.7677-28.638-8.662-34.118-15.026-5.48-6.364-14.672-14.496-16.263-19.092s-7.7782-19.269-7.6014-29.168-1.0607-16.264-0.5303-19.092c0.5303-2.8284 1.7677-18.738 7.4246-25.809 5.6569-7.0711 19.976-17.678 19.976-17.678l-25.346-34.606-36 114 100 116 154-110 22-10.5s6.5-2.5-1.5-12.5-15-19.5-13.5-36c1.5-16.5 5.5-34.5 6.5-44s8-37 10.5-44 10.5-62.5 10.5-62.5 3.5 1.5 6-1.5 7.5-5 5.5-10.5-5-10-9-10-6.5 0.5-8 4.5-2 10 1 13l4.5 4.5 3.5 94-18.5 94s10 2.5 16-3 18.5-22.5 21-32.5c2.5-10 4-13 7-23.5s9-33 9.5-37 5-22 2-34-3-13-3-13l-3.5 5s-2 4.5-1 14.5 3.5 23 4.5 25.5 4.5 7.5 9 7.5 5 0.5 11.5-1.5 13.5-6.5 15-9.5 7.5-17 7.5-17-16 35-18 46.5-2.5 32.5-2 40.5c0.5 8 6.5 28 8.5 31.5s5.5 6.5 8 7.5 11 2.5 14.5 0 14-12 15-16 20-48.5 21.5-56.5 12.5-31 14.75-38.25c2.25-7.25 12-41 13.25-46.25s8.25-37.5 8.5-40.75 2.25-26.75-0.5-28.75-9.5-2.5-13 6.5-8.5 18.25-9.75 25.25-4.75 21-6 32-3.5 35-3.25 44.25c0.25 9.25 0 45.75 0.5 52.25s3 28.75 4.5 34.75 5.1328 21.801 10.79 26.751c5.6568 4.9498 14.142 7.7782 21.92 2.8285 7.7782-4.9498 15.556-20.506 19.092-28.284 3.5355-7.7782 12.728-36.062 13.435-41.012 0.7071-4.9498-97.581-20.506-97.581-20.506l-25.456-70.711 4.2427-2.8284s15.556 16.263 31.82 20.506c16.263 4.2426 41.012 4.9498 52.326 2.1213s36.062-12.021 36.062-14.849c0-2.8284-23.334 75.66-23.334 75.66l20.506 15.556s19.092-28.284 28.284-59.397c9.1923-31.113 21.213-67.882 21.92-85.56s-0.7071-40.305-7.0711-39.598c-6.364 0.70711-14.849 2.1213-17.678 8.4853-2.8284 6.364-10.607 41.012-12.728 55.154-2.1213 14.142-4.9497 55.861-4.9497 55.861l-4.9498 132.94s15.556-46.669 20.506-60.104c4.9498-13.435 17.678-40.305 22.627-43.841 4.9498-3.5356 12.021-11.314 17.678-9.1924 5.6568 2.1213 8.4853 8.4853 10.607 14.849 2.1213 6.364 0 16.264-1.4142 24.749-1.4142 8.4852-7.7782 50.204-7.7782 50.204s1.4142 19.799 4.9498 23.334c3.5355 3.5355 14.849 9.1924 21.92 0.7071 7.071-8.4853 24.042-48.083 27.577-57.983 3.5356-9.8995 16.971-49.498 23.335-57.276 6.3639-7.7782 18.385-18.385 26.163-16.971 7.7782 1.4142 20.506 5.6569 20.506 5.6569l-51.619-26.163-14.849 28.991 0.7071 87.681s5.6568 37.477 18.385 39.598c12.728 2.1213 31.82-3.5355 41.012-21.92 9.1924-18.385 26.87-56.568 30.406-72.832 3.5356-16.264 14.849-56.569 14.849-56.569s12.728-55.861 12.728-67.882c0-12.021 7.0711-53.74-8.4853-58.69-15.556-4.9498-24.749 40.305-24.749 40.305s-7.7782 50.912-9.1924 60.104-3.5355 58.69-3.5355 68.589-2.1214 55.861 1.4142 67.882c3.5355 12.021 0.7071 24.749 14.849 31.82 14.142 7.0711 25.456-12.728 26.87-16.97 1.4142-4.2427 19.799-53.033 19.799-53.033s3.5355-24.749 16.97-41.719c13.435-16.971 18.385-22.627 31.113-21.92 12.728 0.70711 17.678 14.142 17.678 14.142s4.2426 7.7781 0 19.799c-4.2427 12.021-21.213 29.698-21.213 29.698l37.477-31.82-16.97-60.811-44.548-20.506-19.799 68.589s-2.8285 74.246 0.7071 86.267c3.5355 12.021 3.5355 23.334 14.849 31.113 11.314 7.7781 24.749 0 24.749 0s12.021-16.971 16.263-32.527 12.728-48.79 12.728-48.79-8.4853 45.255-6.3639 55.154c2.1213 9.8994 4.2426 24.042 12.021 23.334s12.728 0 21.213-19.799c8.4853-19.799 40.305-113.14 40.305-113.14s-24.042 60.104-24.042 73.539c0 13.435 3.5356 48.083 11.314 54.447 7.7781 6.364 15.556 7.7782 15.556 7.7782s5.6569 3.5355 16.971-12.021c11.314-15.556 27.577-52.326 27.577-52.326l14.849-76.368s-17.678 94.045-19.092 120.92-4.2427 96.166-4.2427 96.166-7.7781 45.962-21.213 58.69c-13.435 12.728-21.213 4.9497-21.213 4.9497s-15.556-10.607-14.142-22.627 0-17.678 4.9498-31.113c4.9497-13.435 21.92-35.355 32.527-43.134s33.941-30.406 33.941-30.406 17.678-20.506 24.749-38.184c7.0711-17.678 19.799-48.79 21.92-57.983 2.1214-9.1923 9.8995-24.042 7.7782-27.577" clip-path="url(#clipPath4586)" stroke="#ffefef" stroke-width="18"/>
  <path d="m-338.35 1111.5s10.607 17.324 12.728 19.446 3.182 3.8891 3.182 3.8891l19.799 14.496s2.1213 1.7677 7.4246 3.1819c5.3033 1.4143 9.8995 3.5356 15.556 3.5356s6.364 1.0606 12.021-0.3536c5.6568-1.4142 8.4853-2.1213 16.617-5.6568 8.1317-3.5356 20.153-12.374 22.274-15.91 2.1213-3.5356 9.5459-20.153 10.253-22.981 0.7071-2.8284 6.1241-26.525 6.8741-28.275" stroke="#000" stroke-width="1px"/>
 </g>
</svg>
